ffmpeg started on 2025-07-20 at 11:45:56
Report written to "D:\Convert\FFMetrics\reports\psnr_report-6.txt"
Log level: 32
Command line:
ffmpeg -hide_banner -nostdin -i "G:\\\xc0\xed\xe8\xec\xe5\\\xce\xed\xe3\xee\xe8\xed\xe3\xe8\\!_10_\xc2\xe5\xf1\xed\xe0_2018\\\xcf\xee\xf2\xe5\xf0\xff\xed\xed\xe0\xff \xef\xe5\xf1\xed\xff\\[SHIZA Project] Lost Song ONA [02] [MVO]_HEVC.mkv" -i "G:\\\xc0\xed\xe8\xec\xe5\\\xce\xed\xe3\xee\xe8\xed\xe3\xe8\\!_10_\xc2\xe5\xf1\xed\xe0_2018\\\xcf\xee\xf2\xe5\xf0\xff\xed\xed\xe0\xff \xef\xe5\xf1\xed\xff\\[SHIZA Project] Lost Song ONA [02] [MVO].mkv" -lavfi "[0:v]settb=AVTB,setpts=PTS-STARTPTS,format=pix_fmts=yuv420p10,fps=24000/1001,scale=1280:720:flags=bicubic[main];[1:v]settb=AVTB,setpts=PTS-STARTPTS,format=pix_fmts=yuv420p,fps=24000/1001,scale=1280:720:flags=bicubic[ref];[main][ref]psnr=eof_action=endall:stats_file='D\\:/Convert/FFMetrics/logs/psnr_logfile-6.txt'" -f null -
Input #0, matroska,webm, from 'G:\Аниме\Онгоинги\!_10_Весна_2018\Потерянная песня\[SHIZA Project] Lost Song ONA [02] [MVO]_HEVC.mkv':
  Metadata:
    ENCODER         : Lavf61.7.100
  Duration: 00:23:57.18, start: -0.021000, bitrate: 504 kb/s
  Stream #0:0(jpn): Video: hevc (Main 10), yuv420p10le(tv, bt709, progressive), 1280x720 [SAR 1:1 DAR 16:9], 23.98 fps, 23.98 tbr, 1k tbn
      Metadata:
        title           : www.SHIZA-Project.com
        ENCODER         : Lavc61.19.100 libx265
        BPS             : 308531
        DURATION        : 00:23:57.102708333
        NUMBER_OF_FRAMES: 34456
        NUMBER_OF_BYTES : 55423938
        _STATISTICS_WRITING_APP: mkvpropedit v66.0.0 ('Josie') 64-bit
        _STATISTICS_WRITING_DATE_UTC: 2025-07-19 12:14:59
        _STATISTICS_TAGS: BPS DURATION NUMBER_OF_FRAMES NUMBER_OF_BYTES
  Stream #0:1(rus): Audio: aac (LC), 48000 Hz, stereo, fltp (default)
      Metadata:
        title           : MVO SHIZA Project
        ENCODER         : Lavc61.19.100 aac
        BPS             : 191982
        DURATION        : 00:23:57.162000000
        NUMBER_OF_FRAMES: 67368
        NUMBER_OF_BYTES : 34488729
        _STATISTICS_WRITING_APP: mkvpropedit v66.0.0 ('Josie') 64-bit
        _STATISTICS_WRITING_DATE_UTC: 2025-07-19 12:14:59
        _STATISTICS_TAGS: BPS DURATION NUMBER_OF_FRAMES NUMBER_OF_BYTES
  Stream #0:2(rus): Subtitle: ass (ssa) (default)
      Metadata:
        BPS             : 51
        DURATION        : 00:01:41.930000000
        NUMBER_OF_FRAMES: 11
        NUMBER_OF_BYTES : 653
        _STATISTICS_WRITING_APP: mkvpropedit v66.0.0 ('Josie') 64-bit
        _STATISTICS_WRITING_DATE_UTC: 2025-07-19 12:14:59
        _STATISTICS_TAGS: BPS DURATION NUMBER_OF_FRAMES NUMBER_OF_BYTES
Input #1, matroska,webm, from 'G:\Аниме\Онгоинги\!_10_Весна_2018\Потерянная песня\[SHIZA Project] Lost Song ONA [02] [MVO].mkv':
  Metadata:
    encoder         : libebml v1.3.0 + libmatroska v1.4.0
    creation_time   : 2018-04-28T11:37:32.000000Z
  Duration: 00:23:57.16, start: 0.000000, bitrate: 1135 kb/s
  Stream #1:0(jpn): Video: h264 (Main), yuv420p(progressive), 1280x720 [SAR 1:1 DAR 16:9], 23.98 fps, 23.98 tbr, 1k tbn
      Metadata:
        title           : www.SHIZA-Project.com
  Stream #1:1(rus): Audio: aac (LC), 48000 Hz, stereo, fltp (default)
      Metadata:
        title           : MVO SHIZA Project
  Stream #1:2(rus): Subtitle: ass (ssa) (default)
Stream mapping:
  Stream #0:0 (hevc) -> settb:default
  Stream #1:0 (h264) -> settb:default
  psnr:default -> Stream #0:0 (wrapped_avframe)
  Stream #0:1 -> #0:1 (aac (native) -> pcm_s16le (native))
[swscaler @ 000001d6fc8db800] No accelerated colorspace conversion found from yuv420p to bgr48le.
[swscaler @ 000001d6fcaa0600] No accelerated colorspace conversion found from yuv420p to bgr48le.
[swscaler @ 000001d6fcb94500] No accelerated colorspace conversion found from yuv420p to bgr48le.
[swscaler @ 000001d6fcbe1d00] No accelerated colorspace conversion found from yuv420p to bgr48le.
[swscaler @ 000001d6fcc6ec40] No accelerated colorspace conversion found from yuv420p to bgr48le.
[swscaler @ 000001d6fccc97c0] No accelerated colorspace conversion found from yuv420p to bgr48le.
[swscaler @ 000001d6fcce4900] No accelerated colorspace conversion found from yuv420p to bgr48le.
[swscaler @ 000001d6fcd9b040] No accelerated colorspace conversion found from yuv420p to bgr48le.
[swscaler @ 000001d6fce16bc0] No accelerated colorspace conversion found from yuv420p to bgr48le.
[swscaler @ 000001d6fce86bc0] No accelerated colorspace conversion found from yuv420p to bgr48le.
[swscaler @ 000001d6fcef1040] No accelerated colorspace conversion found from yuv420p to bgr48le.
[swscaler @ 000001d6fcf79040] No accelerated colorspace conversion found from yuv420p to bgr48le.
[swscaler @ 000001d6fcfdf040] No accelerated colorspace conversion found from yuv420p to bgr48le.
[swscaler @ 000001d6fd049040] No accelerated colorspace conversion found from yuv420p to bgr48le.
[swscaler @ 000001d6fd0b7040] No accelerated colorspace conversion found from yuv420p to bgr48le.
[swscaler @ 000001d6fd14f040] No accelerated colorspace conversion found from yuv420p to bgr48le.
Output #0, null, to 'pipe:':
  Metadata:
    encoder         : Lavf61.7.100
  Stream #0:0: Video: wrapped_avframe, yuv420p10le(tv, bt709, progressive), 1280x720 [SAR 1:1 DAR 16:9], q=2-31, 200 kb/s, 23.98 fps, 23.98 tbn
      Metadata:
        encoder         : Lavc61.19.100 wrapped_avframe
  Stream #0:1(rus): Audio: pcm_s16le, 48000 Hz, stereo, s16, 1536 kb/s (default)
      Metadata:
        title           : MVO SHIZA Project
        _STATISTICS_TAGS: BPS DURATION NUMBER_OF_FRAMES NUMBER_OF_BYTES
        BPS             : 191982
        DURATION        : 00:23:57.162000000
        NUMBER_OF_FRAMES: 67368
        NUMBER_OF_BYTES : 34488729
        _STATISTICS_WRITING_APP: mkvpropedit v66.0.0 ('Josie') 64-bit
        _STATISTICS_WRITING_DATE_UTC: 2025-07-19 12:14:59
        encoder         : Lavc61.19.100 pcm_s16le
frame=   81 fps=0.0 q=-0.0 size=N/A time=00:00:03.37 bitrate=N/A speed= 6.6x    frame=  190 fps=186 q=-0.0 size=N/A time=00:00:07.92 bitrate=N/A speed=7.75x    frame=  291 fps=188 q=-0.0 size=N/A time=00:00:12.13 bitrate=N/A speed=7.86x    frame=  386 fps=187 q=-0.0 size=N/A time=00:00:16.09 bitrate=N/A speed=7.81x    frame=  489 fps=190 q=-0.0 size=N/A time=00:00:20.39 bitrate=N/A speed=7.94x    frame=  590 fps=191 q=-0.0 size=N/A time=00:00:24.60 bitrate=N/A speed=7.96x    frame=  691 fps=192 q=-0.0 size=N/A time=00:00:28.82 bitrate=N/A speed=8.01x    frame=  790 fps=192 q=-0.0 size=N/A time=00:00:32.94 bitrate=N/A speed=7.99x    frame=  888 fps=191 q=-0.0 size=N/A time=00:00:37.03 bitrate=N/A speed=7.98x    frame=  987 fps=192 q=-0.0 size=N/A time=00:00:41.16 bitrate=N/A speed=7.99x    frame= 1083 fps=191 q=-0.0 size=N/A time=00:00:45.17 bitrate=N/A speed=7.96x    frame= 1190 fps=192 q=-0.0 size=N/A time=00:00:49.63 bitrate=N/A speed=8.01x    frame= 1292 fps=193 q=-0.0 size=N/A time=00:00:53.88 bitrate=N/A speed=8.03x    frame= 1387 fps=192 q=-0.0 size=N/A time=00:00:57.84 bitrate=N/A speed=   8x    frame= 1493 fps=193 q=-0.0 size=N/A time=00:01:02.27 bitrate=N/A speed=8.03x    frame= 1595 fps=193 q=-0.0 size=N/A time=00:01:06.52 bitrate=N/A speed=8.04x    frame= 1695 fps=193 q=-0.0 size=N/A time=00:01:10.69 bitrate=N/A speed=8.04x    frame= 1791 fps=192 q=-0.0 size=N/A time=00:01:14.69 bitrate=N/A speed=8.03x    frame= 1893 fps=193 q=-0.0 size=N/A time=00:01:18.95 bitrate=N/A speed=8.03x    frame= 1988 fps=192 q=-0.0 size=N/A time=00:01:22.91 bitrate=N/A speed=8.03x    frame= 2091 fps=193 q=-0.0 size=N/A time=00:01:27.21 bitrate=N/A speed=8.03x    frame= 2192 fps=193 q=-0.0 size=N/A time=00:01:31.42 bitrate=N/A speed=8.04x    frame= 2283 fps=192 q=-0.0 size=N/A time=00:01:35.22 bitrate=N/A speed=8.01x    frame= 2390 fps=193 q=-0.0 size=N/A time=00:01:39.68 bitrate=N/A speed=8.03x    frame= 2487 fps=193 q=-0.0 size=N/A time=00:01:43.72 bitrate=N/A speed=8.03x    frame= 2587 fps=193 q=-0.0 size=N/A time=00:01:47.89 bitrate=N/A speed=8.03x    frame= 2691 fps=193 q=-0.0 size=N/A time=00:01:52.23 bitrate=N/A speed=8.04x    frame= 2787 fps=193 q=-0.0 size=N/A time=00:01:56.24 bitrate=N/A speed=8.04x    frame= 2887 fps=193 q=-0.0 size=N/A time=00:02:00.41 bitrate=N/A speed=8.04x    frame= 2985 fps=193 q=-0.0 size=N/A time=00:02:04.49 bitrate=N/A speed=8.04x    frame= 3085 fps=193 q=-0.0 size=N/A time=00:02:08.67 bitrate=N/A speed=8.03x    frame= 3184 fps=193 q=-0.0 size=N/A time=00:02:12.79 bitrate=N/A speed=8.03x    frame= 3282 fps=193 q=-0.0 size=N/A time=00:02:16.88 bitrate=N/A speed=8.03x    frame= 3384 fps=193 q=-0.0 size=N/A time=00:02:21.14 bitrate=N/A speed=8.04x    frame= 3488 fps=193 q=-0.0 size=N/A time=00:02:25.47 bitrate=N/A speed=8.05x    frame= 3576 fps=192 q=-0.0 size=N/A time=00:02:29.14 bitrate=N/A speed=8.02x    frame= 3668 fps=192 q=-0.0 size=N/A time=00:02:32.98 bitrate=N/A speed=   8x    frame= 3771 fps=192 q=-0.0 size=N/A time=00:02:37.28 bitrate=N/A speed=8.01x    frame= 3864 fps=192 q=-0.0 size=N/A time=00:02:41.16 bitrate=N/A speed=   8x    frame= 3958 fps=192 q=-0.0 size=N/A time=00:02:45.08 bitrate=N/A speed=7.99x    frame= 4060 fps=192 q=-0.0 size=N/A time=00:02:49.33 bitrate=N/A speed=7.99x    frame= 4152 fps=191 q=-0.0 size=N/A time=00:02:53.17 bitrate=N/A speed=7.98x    frame= 4251 fps=191 q=-0.0 size=N/A time=00:02:57.30 bitrate=N/A speed=7.98x    frame= 4344 fps=191 q=-0.0 size=N/A time=00:03:01.18 bitrate=N/A speed=7.96x    frame= 4436 fps=191 q=-0.0 size=N/A time=00:03:05.01 bitrate=N/A speed=7.95x    frame= 4532 fps=191 q=-0.0 size=N/A time=00:03:09.02 bitrate=N/A speed=7.95x    frame= 4632 fps=191 q=-0.0 size=N/A time=00:03:13.19 bitrate=N/A speed=7.95x    frame= 4726 fps=191 q=-0.0 size=N/A time=00:03:17.11 bitrate=N/A speed=7.95x    frame= 4837 fps=191 q=-0.0 size=N/A time=00:03:21.74 bitrate=N/A speed=7.97x    frame= 4923 fps=191 q=-0.0 size=N/A time=00:03:25.33 bitrate=N/A speed=7.95x    frame= 5018 fps=190 q=-0.0 size=N/A time=00:03:29.29 bitrate=N/A speed=7.94x    frame= 5121 fps=191 q=-0.0 size=N/A time=00:03:33.58 bitrate=N/A speed=7.95x    frame= 5223 fps=191 q=-0.0 size=N/A time=00:03:37.84 bitrate=N/A speed=7.95x    frame= 5319 fps=191 q=-0.0 size=N/A time=00:03:41.84 bitrate=N/A speed=7.95x    frame= 5414 fps=191 q=-0.0 size=N/A time=00:03:45.80 bitrate=N/A speed=7.95x    frame= 5513 fps=191 q=-0.0 size=N/A time=00:03:49.93 bitrate=N/A speed=7.95x    frame= 5613 fps=191 q=-0.0 size=N/A time=00:03:54.10 bitrate=N/A speed=7.95x    frame= 5712 fps=191 q=-0.0 size=N/A time=00:03:58.23 bitrate=N/A speed=7.95x    frame= 5804 fps=190 q=-0.0 size=N/A time=00:04:02.07 bitrate=N/A speed=7.94x    frame= 5905 fps=190 q=-0.0 size=N/A time=00:04:06.28 bitrate=N/A speed=7.94x    frame= 5996 fps=190 q=-0.0 size=N/A time=00:04:10.08 bitrate=N/A speed=7.94x    frame= 6097 fps=190 q=-0.0 size=N/A time=00:04:14.29 bitrate=N/A speed=7.94x    frame= 6196 fps=190 q=-0.0 size=N/A time=00:04:18.42 bitrate=N/A speed=7.94x    frame= 6303 fps=191 q=-0.0 size=N/A time=00:04:22.88 bitrate=N/A speed=7.95x    frame= 6400 fps=191 q=-0.0 size=N/A time=00:04:26.93 bitrate=N/A speed=7.95x    frame= 6499 fps=191 q=-0.0 size=N/A time=00:04:31.06 bitrate=N/A speed=7.95x    frame= 6585 fps=190 q=-0.0 size=N/A time=00:04:34.64 bitrate=N/A speed=7.94x    frame= 6691 fps=191 q=-0.0 size=N/A time=00:04:39.07 bitrate=N/A speed=7.95x    frame= 6787 fps=190 q=-0.0 size=N/A time=00:04:43.07 bitrate=N/A speed=7.94x    frame= 6885 fps=190 q=-0.0 size=N/A time=00:04:47.16 bitrate=N/A speed=7.94x    frame= 6987 fps=191 q=-0.0 size=N/A time=00:04:51.41 bitrate=N/A speed=7.95x    frame= 7080 fps=190 q=-0.0 size=N/A time=00:04:55.29 bitrate=N/A speed=7.94x    frame= 7182 fps=190 q=-0.0 size=N/A time=00:04:59.54 bitrate=N/A speed=7.94x    frame= 7284 fps=191 q=-0.0 size=N/A time=00:05:03.80 bitrate=N/A speed=7.95x    frame= 7385 fps=191 q=-0.0 size=N/A time=00:05:08.01 bitrate=N/A speed=7.95x    frame= 7487 fps=191 q=-0.0 size=N/A time=00:05:12.27 bitrate=N/A speed=7.96x    frame= 7585 fps=191 q=-0.0 size=N/A time=00:05:16.35 bitrate=N/A speed=7.95x    frame= 7687 fps=191 q=-0.0 size=N/A time=00:05:20.61 bitrate=N/A speed=7.96x    frame= 7788 fps=191 q=-0.0 size=N/A time=00:05:24.82 bitrate=N/A speed=7.96x    frame= 7886 fps=191 q=-0.0 size=N/A time=00:05:28.91 bitrate=N/A speed=7.96x    frame= 7984 fps=191 q=-0.0 size=N/A time=00:05:32.99 bitrate=N/A speed=7.96x    frame= 8081 fps=191 q=-0.0 size=N/A time=00:05:37.04 bitrate=N/A speed=7.96x    frame= 8180 fps=191 q=-0.0 size=N/A time=00:05:41.17 bitrate=N/A speed=7.96x    frame= 8272 fps=191 q=-0.0 size=N/A time=00:05:45.01 bitrate=N/A speed=7.96x    frame= 8371 fps=191 q=-0.0 size=N/A time=00:05:49.14 bitrate=N/A speed=7.95x    frame= 8462 fps=191 q=-0.0 size=N/A time=00:05:52.93 bitrate=N/A speed=7.95x    frame= 8566 fps=191 q=-0.0 size=N/A time=00:05:57.27 bitrate=N/A speed=7.95x    frame= 8661 fps=191 q=-0.0 size=N/A time=00:06:01.23 bitrate=N/A speed=7.95x    frame= 8762 fps=191 q=-0.0 size=N/A time=00:06:05.44 bitrate=N/A speed=7.95x    frame= 8856 fps=191 q=-0.0 size=N/A time=00:06:09.36 bitrate=N/A speed=7.95x    frame= 8967 fps=191 q=-0.0 size=N/A time=00:06:13.99 bitrate=N/A speed=7.96x    frame= 9066 fps=191 q=-0.0 size=N/A time=00:06:18.12 bitrate=N/A speed=7.96x    frame= 9164 fps=191 q=-0.0 size=N/A time=00:06:22.21 bitrate=N/A speed=7.96x    frame= 9258 fps=191 q=-0.0 size=N/A time=00:06:26.13 bitrate=N/A speed=7.96x    frame= 9358 fps=191 q=-0.0 size=N/A time=00:06:30.30 bitrate=N/A speed=7.96x    frame= 9453 fps=191 q=-0.0 size=N/A time=00:06:34.26 bitrate=N/A speed=7.96x    frame= 9555 fps=191 q=-0.0 size=N/A time=00:06:38.52 bitrate=N/A speed=7.96x    frame= 9652 fps=191 q=-0.0 size=N/A time=00:06:42.56 bitrate=N/A speed=7.96x    frame= 9756 fps=191 q=-0.0 size=N/A time=00:06:46.90 bitrate=N/A speed=7.96x    frame= 9856 fps=191 q=-0.0 size=N/A time=00:06:51.07 bitrate=N/A speed=7.96x    frame= 9957 fps=191 q=-0.0 size=N/A time=00:06:55.28 bitrate=N/A speed=7.97x    frame=10052 fps=191 q=-0.0 size=N/A time=00:06:59.25 bitrate=N/A speed=7.96x    frame=10149 fps=191 q=-0.0 size=N/A time=00:07:03.29 bitrate=N/A speed=7.96x    frame=10244 fps=191 q=-0.0 size=N/A time=00:07:07.26 bitrate=N/A speed=7.96x    frame=10343 fps=191 q=-0.0 size=N/A time=00:07:11.38 bitrate=N/A speed=7.96x    frame=10443 fps=191 q=-0.0 size=N/A time=00:07:15.56 bitrate=N/A speed=7.96x    frame=10544 fps=191 q=-0.0 size=N/A time=00:07:19.77 bitrate=N/A speed=7.96x    frame=10645 fps=191 q=-0.0 size=N/A time=00:07:23.98 bitrate=N/A speed=7.96x    frame=10743 fps=191 q=-0.0 size=N/A time=00:07:28.07 bitrate=N/A speed=7.96x    frame=10840 fps=191 q=-0.0 size=N/A time=00:07:32.11 bitrate=N/A speed=7.96x    frame=10936 fps=191 q=-0.0 size=N/A time=00:07:36.12 bitrate=N/A speed=7.96x    frame=11038 fps=191 q=-0.0 size=N/A time=00:07:40.37 bitrate=N/A speed=7.96x    frame=11131 fps=191 q=-0.0 size=N/A time=00:07:44.25 bitrate=N/A speed=7.96x    frame=11222 fps=191 q=-0.0 size=N/A time=00:07:48.05 bitrate=N/A speed=7.96x    frame=11321 fps=191 q=-0.0 size=N/A time=00:07:52.18 bitrate=N/A speed=7.96x    frame=11419 fps=191 q=-0.0 size=N/A time=00:07:56.26 bitrate=N/A speed=7.96x    frame=11518 fps=191 q=-0.0 size=N/A time=00:08:00.39 bitrate=N/A speed=7.96x    frame=11615 fps=191 q=-0.0 size=N/A time=00:08:04.44 bitrate=N/A speed=7.96x    frame=11721 fps=191 q=-0.0 size=N/A time=00:08:08.86 bitrate=N/A speed=7.96x    frame=11817 fps=191 q=-0.0 size=N/A time=00:08:12.86 bitrate=N/A speed=7.96x    frame=11914 fps=191 q=-0.0 size=N/A time=00:08:16.91 bitrate=N/A speed=7.96x    frame=12010 fps=191 q=-0.0 size=N/A time=00:08:20.91 bitrate=N/A speed=7.96x    frame=12099 fps=191 q=-0.0 size=N/A time=00:08:24.62 bitrate=N/A speed=7.95x    frame=12191 fps=191 q=-0.0 size=N/A time=00:08:28.46 bitrate=N/A speed=7.95x    frame=12286 fps=190 q=-0.0 size=N/A time=00:08:32.42 bitrate=N/A speed=7.94x    frame=12384 fps=190 q=-0.0 size=N/A time=00:08:36.51 bitrate=N/A speed=7.94x    frame=12482 fps=190 q=-0.0 size=N/A time=00:08:40.60 bitrate=N/A speed=7.94x    frame=12572 fps=190 q=-0.0 size=N/A time=00:08:44.35 bitrate=N/A speed=7.94x    frame=12673 fps=190 q=-0.0 size=N/A time=00:08:48.56 bitrate=N/A speed=7.94x    frame=12775 fps=190 q=-0.0 size=N/A time=00:08:52.82 bitrate=N/A speed=7.94x    frame=12865 fps=190 q=-0.0 size=N/A time=00:08:56.57 bitrate=N/A speed=7.94x    frame=12972 fps=190 q=-0.0 size=N/A time=00:09:01.04 bitrate=N/A speed=7.94x    frame=13073 fps=190 q=-0.0 size=N/A time=00:09:05.25 bitrate=N/A speed=7.94x    frame=13178 fps=191 q=-0.0 size=N/A time=00:09:09.63 bitrate=N/A speed=7.95x    frame=13276 fps=191 q=-0.0 size=N/A time=00:09:13.71 bitrate=N/A speed=7.95x    frame=13375 fps=191 q=-0.0 size=N/A time=00:09:17.84 bitrate=N/A speed=7.95x    frame=13472 fps=191 q=-0.0 size=N/A time=00:09:21.89 bitrate=N/A speed=7.95x    frame=13569 fps=191 q=-0.0 size=N/A time=00:09:25.94 bitrate=N/A speed=7.95x    frame=13668 fps=191 q=-0.0 size=N/A time=00:09:30.06 bitrate=N/A speed=7.95x    frame=13774 fps=191 q=-0.0 size=N/A time=00:09:34.49 bitrate=N/A speed=7.95x    frame=13868 fps=191 q=-0.0 size=N/A time=00:09:38.41 bitrate=N/A speed=7.95x    frame=13972 fps=191 q=-0.0 size=N/A time=00:09:42.74 bitrate=N/A speed=7.95x    frame=14070 fps=191 q=-0.0 size=N/A time=00:09:46.83 bitrate=N/A speed=7.95x    frame=14172 fps=191 q=-0.0 size=N/A time=00:09:51.09 bitrate=N/A speed=7.95x    frame=14272 fps=191 q=-0.0 size=N/A time=00:09:55.26 bitrate=N/A speed=7.95x    frame=14371 fps=191 q=-0.0 size=N/A time=00:09:59.39 bitrate=N/A speed=7.96x    frame=14470 fps=191 q=-0.0 size=N/A time=00:10:03.51 bitrate=N/A speed=7.96x    frame=14571 fps=191 q=-0.0 size=N/A time=00:10:07.73 bitrate=N/A speed=7.96x    frame=14671 fps=191 q=-0.0 size=N/A time=00:10:11.90 bitrate=N/A speed=7.96x    frame=14769 fps=191 q=-0.0 size=N/A time=00:10:15.99 bitrate=N/A speed=7.96x    frame=14867 fps=191 q=-0.0 size=N/A time=00:10:20.07 bitrate=N/A speed=7.96x    frame=14969 fps=191 q=-0.0 size=N/A time=00:10:24.33 bitrate=N/A speed=7.96x    frame=15056 fps=191 q=-0.0 size=N/A time=00:10:27.96 bitrate=N/A speed=7.95x    frame=15172 fps=191 q=-0.0 size=N/A time=00:10:32.79 bitrate=N/A speed=7.96x    frame=15275 fps=191 q=-0.0 size=N/A time=00:10:37.09 bitrate=N/A speed=7.97x    frame=15378 fps=191 q=-0.0 size=N/A time=00:10:41.39 bitrate=N/A speed=7.97x    frame=15481 fps=191 q=-0.0 size=N/A time=00:10:45.68 bitrate=N/A speed=7.97x    frame=15577 fps=191 q=-0.0 size=N/A time=00:10:49.69 bitrate=N/A speed=7.97x    frame=15685 fps=191 q=-0.0 size=N/A time=00:10:54.19 bitrate=N/A speed=7.97x    frame=15787 fps=191 q=-0.0 size=N/A time=00:10:58.44 bitrate=N/A speed=7.98x    frame=15891 fps=191 q=-0.0 size=N/A time=00:11:02.78 bitrate=N/A speed=7.98x    frame=15989 fps=191 q=-0.0 size=N/A time=00:11:06.87 bitrate=N/A speed=7.98x    frame=16090 fps=191 q=-0.0 size=N/A time=00:11:11.08 bitrate=N/A speed=7.98x    frame=16194 fps=191 q=-0.0 size=N/A time=00:11:15.42 bitrate=N/A speed=7.98x    frame=16297 fps=191 q=-0.0 size=N/A time=00:11:19.72 bitrate=N/A speed=7.98x    frame=16399 fps=191 q=-0.0 size=N/A time=00:11:23.97 bitrate=N/A speed=7.98x    frame=16498 fps=191 q=-0.0 size=N/A time=00:11:28.10 bitrate=N/A speed=7.99x    frame=16598 fps=191 q=-0.0 size=N/A time=00:11:32.27 bitrate=N/A speed=7.99x    frame=16695 fps=191 q=-0.0 size=N/A time=00:11:36.32 bitrate=N/A speed=7.99x    frame=16803 fps=192 q=-0.0 size=N/A time=00:11:40.82 bitrate=N/A speed=7.99x    frame=16891 fps=191 q=-0.0 size=N/A time=00:11:44.49 bitrate=N/A speed=7.98x    frame=16996 fps=192 q=-0.0 size=N/A time=00:11:48.87 bitrate=N/A speed=7.99x    frame=17098 fps=192 q=-0.0 size=N/A time=00:11:53.12 bitrate=N/A speed=7.99x    frame=17194 fps=192 q=-0.0 size=N/A time=00:11:57.13 bitrate=N/A speed=7.99x    frame=17292 fps=191 q=-0.0 size=N/A time=00:12:01.22 bitrate=N/A speed=7.99x    frame=17387 fps=191 q=-0.0 size=N/A time=00:12:05.18 bitrate=N/A speed=7.99x    frame=17482 fps=191 q=-0.0 size=N/A time=00:12:09.14 bitrate=N/A speed=7.98x    frame=17574 fps=191 q=-0.0 size=N/A time=00:12:12.98 bitrate=N/A speed=7.98x    frame=17669 fps=191 q=-0.0 size=N/A time=00:12:16.94 bitrate=N/A speed=7.98x    frame=17766 fps=191 q=-0.0 size=N/A time=00:12:20.99 bitrate=N/A speed=7.98x    frame=17860 fps=191 q=-0.0 size=N/A time=00:12:24.91 bitrate=N/A speed=7.98x    frame=17966 fps=191 q=-0.0 size=N/A time=00:12:29.33 bitrate=N/A speed=7.98x    frame=18064 fps=191 q=-0.0 size=N/A time=00:12:33.41 bitrate=N/A speed=7.98x    frame=18157 fps=191 q=-0.0 size=N/A time=00:12:37.29 bitrate=N/A speed=7.98x    frame=18267 fps=191 q=-0.0 size=N/A time=00:12:41.88 bitrate=N/A speed=7.98x    frame=18371 fps=191 q=-0.0 size=N/A time=00:12:46.22 bitrate=N/A speed=7.98x    frame=18474 fps=191 q=-0.0 size=N/A time=00:12:50.51 bitrate=N/A speed=7.99x    frame=18577 fps=192 q=-0.0 size=N/A time=00:12:54.81 bitrate=N/A speed=7.99x    frame=18678 fps=192 q=-0.0 size=N/A time=00:12:59.02 bitrate=N/A speed=7.99x    frame=18776 fps=192 q=-0.0 size=N/A time=00:13:03.11 bitrate=N/A speed=7.99x    frame=18877 fps=192 q=-0.0 size=N/A time=00:13:07.32 bitrate=N/A speed=7.99x    frame=18973 fps=192 q=-0.0 size=N/A time=00:13:11.33 bitrate=N/A speed=7.99x    frame=19064 fps=191 q=-0.0 size=N/A time=00:13:15.12 bitrate=N/A speed=7.99x    frame=19171 fps=192 q=-0.0 size=N/A time=00:13:19.59 bitrate=N/A speed=7.99x    frame=19273 fps=192 q=-0.0 size=N/A time=00:13:23.84 bitrate=N/A speed=7.99x    frame=19375 fps=192 q=-0.0 size=N/A time=00:13:28.09 bitrate=N/A speed=7.99x    frame=19468 fps=192 q=-0.0 size=N/A time=00:13:31.97 bitrate=N/A speed=7.99x    frame=19577 fps=192 q=-0.0 size=N/A time=00:13:36.52 bitrate=N/A speed=7.99x    frame=19671 fps=192 q=-0.0 size=N/A time=00:13:40.44 bitrate=N/A speed=7.99x    frame=19785 fps=192 q=-0.0 size=N/A time=00:13:45.19 bitrate=N/A speed=   8x    frame=19889 fps=192 q=-0.0 size=N/A time=00:13:49.53 bitrate=N/A speed=   8x    frame=19996 fps=192 q=-0.0 size=N/A time=00:13:53.99 bitrate=N/A speed=   8x    frame=20102 fps=192 q=-0.0 size=N/A time=00:13:58.42 bitrate=N/A speed=   8x    frame=20195 fps=192 q=-0.0 size=N/A time=00:14:02.29 bitrate=N/A speed=   8x    frame=20299 fps=192 q=-0.0 size=N/A time=00:14:06.63 bitrate=N/A speed=   8x    frame=20394 fps=192 q=-0.0 size=N/A time=00:14:10.59 bitrate=N/A speed=   8x    frame=20495 fps=192 q=-0.0 size=N/A time=00:14:14.81 bitrate=N/A speed=   8x    frame=20596 fps=192 q=-0.0 size=N/A time=00:14:19.02 bitrate=N/A speed=   8x    frame=20697 fps=192 q=-0.0 size=N/A time=00:14:23.23 bitrate=N/A speed=   8x    frame=20799 fps=192 q=-0.0 size=N/A time=00:14:27.49 bitrate=N/A speed=   8x    frame=20898 fps=192 q=-0.0 size=N/A time=00:14:31.62 bitrate=N/A speed=   8x    frame=20994 fps=192 q=-0.0 size=N/A time=00:14:35.62 bitrate=N/A speed=   8x    frame=21088 fps=192 q=-0.0 size=N/A time=00:14:39.54 bitrate=N/A speed=   8x    frame=21187 fps=192 q=-0.0 size=N/A time=00:14:43.67 bitrate=N/A speed=   8x    frame=21285 fps=192 q=-0.0 size=N/A time=00:14:47.76 bitrate=N/A speed=   8x    frame=21379 fps=192 q=-0.0 size=N/A time=00:14:51.68 bitrate=N/A speed=   8x    frame=21478 fps=192 q=-0.0 size=N/A time=00:14:55.81 bitrate=N/A speed=   8x    frame=21566 fps=192 q=-0.0 size=N/A time=00:14:59.48 bitrate=N/A speed=7.99x    frame=21648 fps=192 q=-0.0 size=N/A time=00:15:02.90 bitrate=N/A speed=7.99x    frame=21739 fps=191 q=-0.0 size=N/A time=00:15:06.69 bitrate=N/A speed=7.99x    frame=21832 fps=191 q=-0.0 size=N/A time=00:15:10.57 bitrate=N/A speed=7.98x    frame=21930 fps=191 q=-0.0 size=N/A time=00:15:14.66 bitrate=N/A speed=7.98x    frame=22023 fps=191 q=-0.0 size=N/A time=00:15:18.54 bitrate=N/A speed=7.98x    frame=22119 fps=191 q=-0.0 size=N/A time=00:15:22.54 bitrate=N/A speed=7.98x    frame=22213 fps=191 q=-0.0 size=N/A time=00:15:26.46 bitrate=N/A speed=7.98x    frame=22312 fps=191 q=-0.0 size=N/A time=00:15:30.59 bitrate=N/A speed=7.98x    frame=22408 fps=191 q=-0.0 size=N/A time=00:15:34.60 bitrate=N/A speed=7.98x    frame=22491 fps=191 q=-0.0 size=N/A time=00:15:38.06 bitrate=N/A speed=7.97x    frame=22600 fps=191 q=-0.0 size=N/A time=00:15:42.60 bitrate=N/A speed=7.98x    frame=22688 fps=191 q=-0.0 size=N/A time=00:15:46.27 bitrate=N/A speed=7.97x    frame=22784 fps=191 q=-0.0 size=N/A time=00:15:50.28 bitrate=N/A speed=7.97x    frame=22882 fps=191 q=-0.0 size=N/A time=00:15:54.37 bitrate=N/A speed=7.97x    frame=22978 fps=191 q=-0.0 size=N/A time=00:15:58.37 bitrate=N/A speed=7.97x    frame=23074 fps=191 q=-0.0 size=N/A time=00:16:02.37 bitrate=N/A speed=7.97x    frame=23160 fps=191 q=-0.0 size=N/A time=00:16:05.96 bitrate=N/A speed=7.97x    frame=23257 fps=191 q=-0.0 size=N/A time=00:16:10.01 bitrate=N/A speed=7.96x    frame=23348 fps=191 q=-0.0 size=N/A time=00:16:13.80 bitrate=N/A speed=7.96x    frame=23435 fps=191 q=-0.0 size=N/A time=00:16:17.43 bitrate=N/A speed=7.96x    frame=23527 fps=191 q=-0.0 size=N/A time=00:16:21.27 bitrate=N/A speed=7.96x    frame=23629 fps=191 q=-0.0 size=N/A time=00:16:25.52 bitrate=N/A speed=7.96x    frame=23729 fps=191 q=-0.0 size=N/A time=00:16:29.69 bitrate=N/A speed=7.96x    frame=23825 fps=191 q=-0.0 size=N/A time=00:16:33.70 bitrate=N/A speed=7.96x    frame=23917 fps=191 q=-0.0 size=N/A time=00:16:37.53 bitrate=N/A speed=7.95x    frame=24014 fps=191 q=-0.0 size=N/A time=00:16:41.58 bitrate=N/A speed=7.95x    frame=24104 fps=191 q=-0.0 size=N/A time=00:16:45.33 bitrate=N/A speed=7.95x    frame=24197 fps=191 q=-0.0 size=N/A time=00:16:49.21 bitrate=N/A speed=7.95x    frame=24292 fps=191 q=-0.0 size=N/A time=00:16:53.17 bitrate=N/A speed=7.95x    frame=24383 fps=191 q=-0.0 size=N/A time=00:16:56.97 bitrate=N/A speed=7.95x    frame=24470 fps=190 q=-0.0 size=N/A time=00:17:00.60 bitrate=N/A speed=7.94x    frame=24562 fps=190 q=-0.0 size=N/A time=00:17:04.44 bitrate=N/A speed=7.94x    frame=24640 fps=190 q=-0.0 size=N/A time=00:17:07.69 bitrate=N/A speed=7.93x    frame=24730 fps=190 q=-0.0 size=N/A time=00:17:11.44 bitrate=N/A speed=7.93x    frame=24821 fps=190 q=-0.0 size=N/A time=00:17:15.24 bitrate=N/A speed=7.93x    frame=24892 fps=190 q=-0.0 size=N/A time=00:17:18.20 bitrate=N/A speed=7.92x    frame=24977 fps=190 q=-0.0 size=N/A time=00:17:21.74 bitrate=N/A speed=7.92x    frame=25045 fps=190 q=-0.0 size=N/A time=00:17:24.58 bitrate=N/A speed=7.91x    frame=25119 fps=189 q=-0.0 size=N/A time=00:17:27.67 bitrate=N/A speed= 7.9x    frame=25208 fps=189 q=-0.0 size=N/A time=00:17:31.38 bitrate=N/A speed= 7.9x    frame=25290 fps=189 q=-0.0 size=N/A time=00:17:34.80 bitrate=N/A speed=7.89x    frame=25374 fps=189 q=-0.0 size=N/A time=00:17:38.30 bitrate=N/A speed=7.89x    frame=25447 fps=189 q=-0.0 size=N/A time=00:17:41.35 bitrate=N/A speed=7.88x    frame=25529 fps=189 q=-0.0 size=N/A time=00:17:44.77 bitrate=N/A speed=7.87x    frame=25605 fps=189 q=-0.0 size=N/A time=00:17:47.94 bitrate=N/A speed=7.87x    frame=25682 fps=189 q=-0.0 size=N/A time=00:17:51.15 bitrate=N/A speed=7.86x    frame=25769 fps=188 q=-0.0 size=N/A time=00:17:54.78 bitrate=N/A speed=7.86x    frame=25854 fps=188 q=-0.0 size=N/A time=00:17:58.32 bitrate=N/A speed=7.86x    frame=25933 fps=188 q=-0.0 size=N/A time=00:18:01.62 bitrate=N/A speed=7.85x    frame=26013 fps=188 q=-0.0 size=N/A time=00:18:04.95 bitrate=N/A speed=7.84x    frame=26100 fps=188 q=-0.0 size=N/A time=00:18:08.58 bitrate=N/A speed=7.84x    frame=26188 fps=188 q=-0.0 size=N/A time=00:18:12.25 bitrate=N/A speed=7.84x    frame=26278 fps=188 q=-0.0 size=N/A time=00:18:16.01 bitrate=N/A speed=7.84x    frame=26363 fps=188 q=-0.0 size=N/A time=00:18:19.55 bitrate=N/A speed=7.83x    frame=26451 fps=188 q=-0.0 size=N/A time=00:18:23.22 bitrate=N/A speed=7.83x    frame=26537 fps=188 q=-0.0 size=N/A time=00:18:26.81 bitrate=N/A speed=7.83x    frame=26625 fps=188 q=-0.0 size=N/A time=00:18:30.48 bitrate=N/A speed=7.82x    frame=26711 fps=188 q=-0.0 size=N/A time=00:18:34.07 bitrate=N/A speed=7.82x    frame=26806 fps=188 q=-0.0 size=N/A time=00:18:38.03 bitrate=N/A speed=7.82x    frame=26897 fps=187 q=-0.0 size=N/A time=00:18:41.82 bitrate=N/A speed=7.82x    frame=26984 fps=187 q=-0.0 size=N/A time=00:18:45.45 bitrate=N/A speed=7.82x    frame=27078 fps=187 q=-0.0 size=N/A time=00:18:49.37 bitrate=N/A speed=7.82x    frame=27170 fps=187 q=-0.0 size=N/A time=00:18:53.21 bitrate=N/A speed=7.81x    frame=27259 fps=187 q=-0.0 size=N/A time=00:18:56.92 bitrate=N/A speed=7.81x    frame=27341 fps=187 q=-0.0 size=N/A time=00:19:00.34 bitrate=N/A speed=7.81x    frame=27434 fps=187 q=-0.0 size=N/A time=00:19:04.22 bitrate=N/A speed=7.81x    frame=27519 fps=187 q=-0.0 size=N/A time=00:19:07.77 bitrate=N/A speed= 7.8x    frame=27608 fps=187 q=-0.0 size=N/A time=00:19:11.48 bitrate=N/A speed= 7.8x    frame=27707 fps=187 q=-0.0 size=N/A time=00:19:15.61 bitrate=N/A speed= 7.8x    frame=27794 fps=187 q=-0.0 size=N/A time=00:19:19.24 bitrate=N/A speed= 7.8x    frame=27893 fps=187 q=-0.0 size=N/A time=00:19:23.37 bitrate=N/A speed= 7.8x    frame=27986 fps=187 q=-0.0 size=N/A time=00:19:27.24 bitrate=N/A speed= 7.8x    frame=28082 fps=187 q=-0.0 size=N/A time=00:19:31.25 bitrate=N/A speed= 7.8x    frame=28174 fps=187 q=-0.0 size=N/A time=00:19:35.09 bitrate=N/A speed= 7.8x    frame=28256 fps=187 q=-0.0 size=N/A time=00:19:38.51 bitrate=N/A speed=7.79x    frame=28332 fps=187 q=-0.0 size=N/A time=00:19:41.68 bitrate=N/A speed=7.79x    frame=28418 fps=187 q=-0.0 size=N/A time=00:19:45.26 bitrate=N/A speed=7.79x    frame=28502 fps=187 q=-0.0 size=N/A time=00:19:48.77 bitrate=N/A speed=7.78x    frame=28588 fps=187 q=-0.0 size=N/A time=00:19:52.35 bitrate=N/A speed=7.78x    frame=28669 fps=186 q=-0.0 size=N/A time=00:19:55.73 bitrate=N/A speed=7.77x    frame=28761 fps=186 q=-0.0 size=N/A time=00:19:59.57 bitrate=N/A speed=7.77x    frame=28848 fps=186 q=-0.0 size=N/A time=00:20:03.20 bitrate=N/A speed=7.77x    frame=28939 fps=186 q=-0.0 size=N/A time=00:20:06.99 bitrate=N/A speed=7.77x    frame=29028 fps=186 q=-0.0 size=N/A time=00:20:10.70 bitrate=N/A speed=7.77x    frame=29119 fps=186 q=-0.0 size=N/A time=00:20:14.50 bitrate=N/A speed=7.77x    frame=29199 fps=186 q=-0.0 size=N/A time=00:20:17.84 bitrate=N/A speed=7.76x    frame=29287 fps=186 q=-0.0 size=N/A time=00:20:21.51 bitrate=N/A speed=7.76x    frame=29373 fps=186 q=-0.0 size=N/A time=00:20:25.09 bitrate=N/A speed=7.76x    frame=29463 fps=186 q=-0.0 size=N/A time=00:20:28.85 bitrate=N/A speed=7.76x    frame=29554 fps=186 q=-0.0 size=N/A time=00:20:32.64 bitrate=N/A speed=7.75x    frame=29641 fps=186 q=-0.0 size=N/A time=00:20:36.27 bitrate=N/A speed=7.75x    frame=29730 fps=186 q=-0.0 size=N/A time=00:20:39.98 bitrate=N/A speed=7.75x    frame=29815 fps=186 q=-0.0 size=N/A time=00:20:43.53 bitrate=N/A speed=7.75x    frame=29907 fps=186 q=-0.0 size=N/A time=00:20:47.37 bitrate=N/A speed=7.75x    frame=29989 fps=186 q=-0.0 size=N/A time=00:20:50.79 bitrate=N/A speed=7.74x    frame=30072 fps=186 q=-0.0 size=N/A time=00:20:54.25 bitrate=N/A speed=7.74x    frame=30164 fps=186 q=-0.0 size=N/A time=00:20:58.09 bitrate=N/A speed=7.74x    frame=30242 fps=185 q=-0.0 size=N/A time=00:21:01.34 bitrate=N/A speed=7.73x    frame=30338 fps=185 q=-0.0 size=N/A time=00:21:05.34 bitrate=N/A speed=7.73x    frame=30429 fps=185 q=-0.0 size=N/A time=00:21:09.14 bitrate=N/A speed=7.73x    frame=30519 fps=185 q=-0.0 size=N/A time=00:21:12.89 bitrate=N/A speed=7.73x    frame=30612 fps=185 q=-0.0 size=N/A time=00:21:16.77 bitrate=N/A speed=7.73x    frame=30705 fps=185 q=-0.0 size=N/A time=00:21:20.65 bitrate=N/A speed=7.73x    frame=30792 fps=185 q=-0.0 size=N/A time=00:21:24.28 bitrate=N/A speed=7.73x    frame=30883 fps=185 q=-0.0 size=N/A time=00:21:28.07 bitrate=N/A speed=7.73x    frame=30975 fps=185 q=-0.0 size=N/A time=00:21:31.91 bitrate=N/A speed=7.73x    frame=31062 fps=185 q=-0.0 size=N/A time=00:21:35.54 bitrate=N/A speed=7.72x    frame=31146 fps=185 q=-0.0 size=N/A time=00:21:39.04 bitrate=N/A speed=7.72x    frame=31240 fps=185 q=-0.0 size=N/A time=00:21:42.96 bitrate=N/A speed=7.72x    frame=31329 fps=185 q=-0.0 size=N/A time=00:21:46.68 bitrate=N/A speed=7.72x    frame=31423 fps=185 q=-0.0 size=N/A time=00:21:50.60 bitrate=N/A speed=7.72x    frame=31507 fps=185 q=-0.0 size=N/A time=00:21:54.10 bitrate=N/A speed=7.72x    frame=31599 fps=185 q=-0.0 size=N/A time=00:21:57.94 bitrate=N/A speed=7.72x    frame=31682 fps=185 q=-0.0 size=N/A time=00:22:01.40 bitrate=N/A speed=7.71x    frame=31770 fps=185 q=-0.0 size=N/A time=00:22:05.07 bitrate=N/A speed=7.71x    frame=31860 fps=185 q=-0.0 size=N/A time=00:22:08.82 bitrate=N/A speed=7.71x    frame=31948 fps=185 q=-0.0 size=N/A time=00:22:12.49 bitrate=N/A speed=7.71x    frame=32041 fps=185 q=-0.0 size=N/A time=00:22:16.37 bitrate=N/A speed=7.71x    frame=32128 fps=185 q=-0.0 size=N/A time=00:22:20.00 bitrate=N/A speed=7.71x    frame=32217 fps=185 q=-0.0 size=N/A time=00:22:23.71 bitrate=N/A speed= 7.7x    frame=32307 fps=185 q=-0.0 size=N/A time=00:22:27.47 bitrate=N/A speed= 7.7x    frame=32398 fps=185 q=-0.0 size=N/A time=00:22:31.26 bitrate=N/A speed= 7.7x    frame=32485 fps=185 q=-0.0 size=N/A time=00:22:34.89 bitrate=N/A speed= 7.7x    frame=32577 fps=185 q=-0.0 size=N/A time=00:22:38.73 bitrate=N/A speed= 7.7x    frame=32660 fps=185 q=-0.0 size=N/A time=00:22:42.19 bitrate=N/A speed= 7.7x    frame=32755 fps=185 q=-0.0 size=N/A time=00:22:46.15 bitrate=N/A speed= 7.7x    frame=32846 fps=184 q=-0.0 size=N/A time=00:22:49.95 bitrate=N/A speed=7.69x    frame=32929 fps=184 q=-0.0 size=N/A time=00:22:53.41 bitrate=N/A speed=7.69x    frame=33024 fps=184 q=-0.0 size=N/A time=00:22:57.37 bitrate=N/A speed=7.69x    frame=33111 fps=184 q=-0.0 size=N/A time=00:23:01.00 bitrate=N/A speed=7.69x    frame=33195 fps=184 q=-0.0 size=N/A time=00:23:04.50 bitrate=N/A speed=7.69x    frame=33282 fps=184 q=-0.0 size=N/A time=00:23:08.13 bitrate=N/A speed=7.69x    frame=33364 fps=184 q=-0.0 size=N/A time=00:23:11.55 bitrate=N/A speed=7.68x    frame=33457 fps=184 q=-0.0 size=N/A time=00:23:15.43 bitrate=N/A speed=7.68x    frame=33550 fps=184 q=-0.0 size=N/A time=00:23:19.31 bitrate=N/A speed=7.68x    frame=33637 fps=184 q=-0.0 size=N/A time=00:23:22.94 bitrate=N/A speed=7.68x    frame=33728 fps=184 q=-0.0 size=N/A time=00:23:26.73 bitrate=N/A speed=7.68x    frame=33817 fps=184 q=-0.0 size=N/A time=00:23:30.45 bitrate=N/A speed=7.68x    frame=33909 fps=184 q=-0.0 size=N/A time=00:23:34.28 bitrate=N/A speed=7.68x    frame=33997 fps=184 q=-0.0 size=N/A time=00:23:37.95 bitrate=N/A speed=7.68x    frame=34087 fps=184 q=-0.0 size=N/A time=00:23:41.71 bitrate=N/A speed=7.67x    frame=34182 fps=184 q=-0.0 size=N/A time=00:23:45.67 bitrate=N/A speed=7.67x    frame=34271 fps=184 q=-0.0 size=N/A time=00:23:49.38 bitrate=N/A speed=7.67x    frame=34363 fps=184 q=-0.0 size=N/A time=00:23:53.22 bitrate=N/A speed=7.67x    frame=34451 fps=184 q=-0.0 size=N/A time=00:23:56.89 bitrate=N/A speed=7.67x    [Parsed_psnr_10 @ 000001d6f6327fc0] PSNR y:45.824113 u:50.271899 v:49.886497 average:46.837287 min:40.412406 max:inf
[out#0/null @ 000001d6f0423b40] video:14805KiB audio:269472KiB subtitle:0KiB other streams:0KiB global headers:0KiB muxing overhead: unknown
frame=34456 fps=184 q=-0.0 Lsize=N/A time=00:23:57.10 bitrate=N/A speed=7.67x    
